<svg xmlns="http://www.w3.org/2000/svg" width="820" height="380" viewBox="0 0 820 380">
<rect width="100%" height="100%" fill="#fbfbf8"/>
<text x="92" y="30" font-family="Arial, sans-serif" font-size="19" font-weight="700" fill="#1c2526">E7: held-out-sample recovery by release policy</text>
<line x1="92" y1="302" x2="780" y2="302" stroke="#9aa3a3" stroke-width="1"/>
<line x1="92" y1="60" x2="92" y2="302" stroke="#9aa3a3" stroke-width="1"/>
<text x="16" y="48" font-family="Arial, sans-serif" font-size="12" fill="#536264">fraction of 40 dosage positions recovered exactly</text>
<rect x="92.0" y="93.4" width="93.0" height="208.6" rx="3" fill="#8a5a44"/>
<text x="138.5" y="85.4" text-anchor="middle" font-family="Arial, sans-serif" font-size="12" fill="#1c2526">1</text>
<text x="138.5" y="350" text-anchor="middle" font-family="Arial, sans-serif" font-size="12.5" fill="#1c2526">no policy</text>
<rect x="211.0" y="93.4" width="93.0" height="208.6" rx="3" fill="#8a5a44"/>
<text x="257.5" y="85.4" text-anchor="middle" font-family="Arial, sans-serif" font-size="12" fill="#1c2526">1</text>
<text x="257.5" y="350" text-anchor="middle" font-family="Arial, sans-serif" font-size="12.5" fill="#1c2526">min-N 20</text>
<rect x="330.0" y="302.0" width="93.0" height="0.0" rx="3" fill="#8a5a44"/>
<text x="376.5" y="294.0" text-anchor="middle" font-family="Arial, sans-serif" font-size="12" fill="#1c2526">0</text>
<text x="376.5" y="350" text-anchor="middle" font-family="Arial, sans-serif" font-size="12.5" fill="#1c2526">min-N 25</text>
<rect x="449.0" y="302.0" width="93.0" height="0.0" rx="3" fill="#8a5a44"/>
<text x="495.5" y="294.0" text-anchor="middle" font-family="Arial, sans-serif" font-size="12" fill="#1c2526">0</text>
<text x="495.5" y="350" text-anchor="middle" font-family="Arial, sans-serif" font-size="12.5" fill="#1c2526">freeze</text>
<rect x="568.0" y="275.9" width="93.0" height="26.1" rx="3" fill="#8a5a44"/>
<text x="614.5" y="267.9" text-anchor="middle" font-family="Arial, sans-serif" font-size="12" fill="#1c2526">0.125</text>
<text x="614.5" y="350" text-anchor="middle" font-family="Arial, sans-serif" font-size="12.5" fill="#1c2526">budget 5</text>
<rect x="687.0" y="124.7" width="93.0" height="177.3" rx="3" fill="#8a5a44"/>
<text x="733.5" y="116.7" text-anchor="middle" font-family="Arial, sans-serif" font-size="12" fill="#1c2526">0.85</text>
<text x="733.5" y="350" text-anchor="middle" font-family="Arial, sans-serif" font-size="12.5" fill="#1c2526">round 5</text>
</svg>
