<svg xmlns="http://www.w3.org/2000/svg" width="820" height="380" viewBox="0 0 820 380">
<rect width="100%" height="100%" fill="#fbfbf8"/>
<text x="92" y="30" font-family="Arial, sans-serif" font-size="19" font-weight="700" fill="#1c2526">E8: strongest adjacent-pair LD (r²) in the public chr22 window</text>
<line x1="92" y1="302" x2="780" y2="302" stroke="#9aa3a3" stroke-width="1"/>
<line x1="92" y1="60" x2="92" y2="302" stroke="#9aa3a3" stroke-width="1"/>
<text x="16" y="48" font-family="Arial, sans-serif" font-size="12" fill="#536264">r²  († = small-count artifact, see caption)</text>
<rect x="92.0" y="93.4" width="93.0" height="208.6" rx="3" fill="#b48a6a"/>
<text x="138.5" y="85.4" text-anchor="middle" font-family="Arial, sans-serif" font-size="12" fill="#1c2526">1 †</text>
<text x="138.5" y="350" text-anchor="middle" font-family="Arial, sans-serif" font-size="12.5" fill="#1c2526">pair 4</text>
<rect x="211.0" y="245.6" width="93.0" height="56.4" rx="3" fill="#5c6b9b"/>
<text x="257.5" y="237.6" text-anchor="middle" font-family="Arial, sans-serif" font-size="12" fill="#1c2526">0.27</text>
<text x="257.5" y="350" text-anchor="middle" font-family="Arial, sans-serif" font-size="12.5" fill="#1c2526">pair 10</text>
<rect x="330.0" y="262.4" width="93.0" height="39.6" rx="3" fill="#5c6b9b"/>
<text x="376.5" y="254.4" text-anchor="middle" font-family="Arial, sans-serif" font-size="12" fill="#1c2526">0.19</text>
<text x="376.5" y="350" text-anchor="middle" font-family="Arial, sans-serif" font-size="12.5" fill="#1c2526">pair 6</text>
<rect x="449.0" y="271.4" width="93.0" height="30.6" rx="3" fill="#5c6b9b"/>
<text x="495.5" y="263.4" text-anchor="middle" font-family="Arial, sans-serif" font-size="12" fill="#1c2526">0.147</text>
<text x="495.5" y="350" text-anchor="middle" font-family="Arial, sans-serif" font-size="12.5" fill="#1c2526">pair 11</text>
<rect x="568.0" y="272.7" width="93.0" height="29.3" rx="3" fill="#5c6b9b"/>
<text x="614.5" y="264.7" text-anchor="middle" font-family="Arial, sans-serif" font-size="12" fill="#1c2526">0.141</text>
<text x="614.5" y="350" text-anchor="middle" font-family="Arial, sans-serif" font-size="12.5" fill="#1c2526">pair 1</text>
<rect x="687.0" y="272.7" width="93.0" height="29.3" rx="3" fill="#5c6b9b"/>
<text x="733.5" y="264.7" text-anchor="middle" font-family="Arial, sans-serif" font-size="12" fill="#1c2526">0.141</text>
<text x="733.5" y="350" text-anchor="middle" font-family="Arial, sans-serif" font-size="12.5" fill="#1c2526">pair 8</text>
</svg>
